<mxfile host="app.diagrams.net" modified="2023-10-29T07:46:50.640Z" agent="Mozilla/5.0 (Windows NT 10.0; Win64; x64) AppleWebKit/537.36 (KHTML, like Gecko) Chrome/118.0.0.0 Safari/537.36" etag="YPf0FWMjIxDEvzLA0Ny6" version="22.0.8" type="google">
  <diagram name="Trang-1" id="SUDPlBTamgMz7puPXMip">
    <mxGraphModel grid="1" page="1" gridSize="10" guides="1" tooltips="1" connect="1" arrows="1" fold="1" pageScale="1" pageWidth="827" pageHeight="1169" math="0" shadow="0">
      <root>
        <mxCell id="0" />
        <mxCell id="1" parent="0" />
        <mxCell id="PTOKN15X76sTQ5s7DGxi-3" value="&lt;b&gt;ANSIBLE&lt;br&gt;192.168.88.83&lt;br&gt;&lt;/b&gt;" style="rounded=1;whiteSpace=wrap;html=1;" vertex="1" parent="1">
          <mxGeometry x="180" y="160" width="120" height="60" as="geometry" />
        </mxCell>
        <mxCell id="PTOKN15X76sTQ5s7DGxi-4" value="&lt;b&gt;DNS-Master&lt;br&gt;192.168.88.81&lt;br&gt;&lt;/b&gt;" style="rounded=1;whiteSpace=wrap;html=1;" vertex="1" parent="1">
          <mxGeometry x="260" y="350" width="120" height="60" as="geometry" />
        </mxCell>
        <mxCell id="PTOKN15X76sTQ5s7DGxi-5" value="&lt;b&gt;DNS-Slave&lt;br&gt;192.168.88.85&lt;br&gt;&lt;/b&gt;" style="rounded=1;whiteSpace=wrap;html=1;" vertex="1" parent="1">
          <mxGeometry x="590" y="350" width="120" height="60" as="geometry" />
        </mxCell>
        <mxCell id="PTOKN15X76sTQ5s7DGxi-8" value="" style="endArrow=classic;html=1;rounded=0;entryX=0.353;entryY=0.04;entryDx=0;entryDy=0;entryPerimeter=0;" edge="1" parent="1" source="PTOKN15X76sTQ5s7DGxi-3" target="PTOKN15X76sTQ5s7DGxi-4">
          <mxGeometry width="50" height="50" relative="1" as="geometry">
            <mxPoint x="250" y="320" as="sourcePoint" />
            <mxPoint x="300" y="270" as="targetPoint" />
          </mxGeometry>
        </mxCell>
        <mxCell id="PTOKN15X76sTQ5s7DGxi-12" value="" style="endArrow=classic;startArrow=classic;html=1;rounded=0;" edge="1" parent="1" source="PTOKN15X76sTQ5s7DGxi-4" target="PTOKN15X76sTQ5s7DGxi-5">
          <mxGeometry width="50" height="50" relative="1" as="geometry">
            <mxPoint x="450" y="400" as="sourcePoint" />
            <mxPoint x="500" y="350" as="targetPoint" />
          </mxGeometry>
        </mxCell>
        <mxCell id="PTOKN15X76sTQ5s7DGxi-13" value="&lt;b&gt;Client&lt;br&gt;192.168.88.86&lt;br&gt;&lt;/b&gt;" style="rounded=1;whiteSpace=wrap;html=1;" vertex="1" parent="1">
          <mxGeometry x="425" y="510" width="120" height="60" as="geometry" />
        </mxCell>
        <mxCell id="PTOKN15X76sTQ5s7DGxi-14" value="" style="endArrow=classic;html=1;rounded=0;" edge="1" parent="1" source="PTOKN15X76sTQ5s7DGxi-4" target="PTOKN15X76sTQ5s7DGxi-13">
          <mxGeometry width="50" height="50" relative="1" as="geometry">
            <mxPoint x="500" y="550" as="sourcePoint" />
            <mxPoint x="550" y="500" as="targetPoint" />
          </mxGeometry>
        </mxCell>
        <mxCell id="PTOKN15X76sTQ5s7DGxi-15" value="" style="endArrow=classic;html=1;rounded=0;" edge="1" parent="1" source="PTOKN15X76sTQ5s7DGxi-5">
          <mxGeometry width="50" height="50" relative="1" as="geometry">
            <mxPoint x="500" y="550" as="sourcePoint" />
            <mxPoint x="520" y="510" as="targetPoint" />
          </mxGeometry>
        </mxCell>
        <mxCell id="PTOKN15X76sTQ5s7DGxi-16" value="&lt;b&gt;Remote Update zone, Restart Dns&lt;/b&gt;" style="text;html=1;strokeColor=none;fillColor=none;align=center;verticalAlign=middle;whiteSpace=wrap;rounded=0;" vertex="1" parent="1">
          <mxGeometry x="280" y="260" width="110" height="30" as="geometry" />
        </mxCell>
        <mxCell id="PTOKN15X76sTQ5s7DGxi-17" value="&lt;b&gt;Sync, Transfer&lt;/b&gt;" style="text;html=1;strokeColor=none;fillColor=none;align=center;verticalAlign=middle;whiteSpace=wrap;rounded=0;" vertex="1" parent="1">
          <mxGeometry x="440" y="350" width="90" height="30" as="geometry" />
        </mxCell>
      </root>
    </mxGraphModel>
  </diagram>
</mxfile>
